<svg xmlns="http://www.w3.org/2000/svg" width="16" height="16"><path d="M7.14 3a3.164 3.164 0 0 0-3.148 3.148v3.707A3.161 3.161 0 0 0 7.141 13h1.703c1.575 0 2.883-1.184 3.103-2.701a1 1 0 0 0 .045-.31V8.014a1 1 0 0 0-.086-.42 1 1 0 0 0-.029-.06 1 1 0 0 0-.006-.012 1 1 0 0 0-.027-.044 1 1 0 0 0-.506-.417 1 1 0 0 0-.014-.003 1 1 0 0 0-.164-.043 1 1 0 0 0-.045-.006 1 1 0 0 0-.07-.008 1 1 0 0 0-.06-.002 1 1 0 0 0-.008 0h-1.97a1 1 0 1 0 0 2h.985v.855c0 .653-.495 1.145-1.148 1.145H7.14a1.122 1.122 0 0 1-1.149-1.145V6.148C5.992 5.495 6.487 5 7.141 5h3.851a1 1 0 1 0 0-2H7.141z" color="#000" font-family="sans-serif" font-weight="400" overflow="visible" style="line-height:normal;text-indent:0;text-align:start;text-decoration-line:none;text-decoration-style:solid;text-decoration-color:#000;text-transform:none;block-progression:tb;white-space:normal;isolation:auto;mix-blend-mode:normal;solid-color:#000;solid-opacity:1"/></svg>